<svg width="28" height="28" viewBox="0 0 28 28" fill="none" xmlns="http://www.w3.org/2000/svg">
<path d="M20.25 7.75V20.875C20.25 21.0408 20.1842 21.1997 20.0669 21.3169C19.9497 21.4342 19.7908 21.5 19.625 21.5H8.375C8.20924 21.5 8.05027 21.4342 7.93306 21.3169C7.81585 21.1997 7.75 21.0408 7.75 20.875V7.75C7.75 7.58424 7.81585 7.42527 7.93306 7.30806C8.05027 7.19085 8.20924 7.125 8.375 7.125H11.5C11.0934 7.66547 10.874 8.32369 10.875 9V9.625H17.125V9C17.126 8.32369 16.9066 7.66547 16.5 7.125H19.625C19.7908 7.125 19.9497 7.19085 20.0669 7.30806C20.1842 7.42527 20.25 7.58424 20.25 7.75Z" fill="white" fill-opacity="0.1"/>
<path d="M17.125 15.875C17.125 16.0408 17.0592 16.1997 16.9419 16.317C16.8247 16.4342 16.6658 16.5 16.5 16.5H11.5C11.3342 16.5 11.1753 16.4342 11.0581 16.317C10.9408 16.1997 10.875 16.0408 10.875 15.875C10.875 15.7092 10.9408 15.5503 11.0581 15.4331C11.1753 15.3159 11.3342 15.25 11.5 15.25H16.5C16.6658 15.25 16.8247 15.3159 16.9419 15.4331C17.0592 15.5503 17.125 15.7092 17.125 15.875ZM16.5 12.75H11.5C11.3342 12.75 11.1753 12.8159 11.0581 12.9331C10.9408 13.0503 10.875 13.2092 10.875 13.375C10.875 13.5408 10.9408 13.6997 11.0581 13.817C11.1753 13.9342 11.3342 14 11.5 14H16.5C16.6658 14 16.8247 13.9342 16.9419 13.817C17.0592 13.6997 17.125 13.5408 17.125 13.375C17.125 13.2092 17.0592 13.0503 16.9419 12.9331C16.8247 12.8159 16.6658 12.75 16.5 12.75ZM20.875 7.75001V20.875C20.875 21.2065 20.7433 21.5245 20.5089 21.7589C20.2745 21.9933 19.9565 22.125 19.625 22.125H8.375C8.04348 22.125 7.72554 21.9933 7.49112 21.7589C7.2567 21.5245 7.125 21.2065 7.125 20.875V7.75001C7.125 7.41849 7.2567 7.10055 7.49112 6.86613C7.72554 6.6317 8.04348 6.50001 8.375 6.50001H11.2078C11.559 6.10682 11.9892 5.79224 12.4704 5.57685C12.9516 5.36146 13.4728 5.25012 14 5.25012C14.5272 5.25012 15.0484 5.36146 15.5296 5.57685C16.0108 5.79224 16.441 6.10682 16.7922 6.50001H19.625C19.9565 6.50001 20.2745 6.6317 20.5089 6.86613C20.7433 7.10055 20.875 7.41849 20.875 7.75001ZM11.5 9.00001H16.5C16.5 8.33697 16.2366 7.70108 15.7678 7.23224C15.2989 6.7634 14.663 6.50001 14 6.50001C13.337 6.50001 12.7011 6.7634 12.2322 7.23224C11.7634 7.70108 11.5 8.33697 11.5 9.00001ZM19.625 7.75001H17.5352C17.6773 8.15143 17.75 8.57416 17.75 9.00001V9.62501C17.75 9.79077 17.6842 9.94974 17.5669 10.067C17.4497 10.1842 17.2908 10.25 17.125 10.25H10.875C10.7092 10.25 10.5503 10.1842 10.4331 10.067C10.3158 9.94974 10.25 9.79077 10.25 9.62501V9.00001C10.25 8.57416 10.3227 8.15143 10.4648 7.75001H8.375V20.875H19.625V7.75001Z" fill="white"/>
</svg>
