<svg width="28" height="28" viewBox="0 0 28 28" fill="none" xmlns="http://www.w3.org/2000/svg">
<path d="M20.875 7.75V11.5C20.875 11.6658 20.8092 11.8247 20.6919 11.9419C20.5747 12.0592 20.4158 12.125 20.25 12.125C20.0842 12.125 19.9253 12.0592 19.8081 11.9419C19.6908 11.8247 19.625 11.6658 19.625 11.5V9.25859L15.6922 13.1922C15.5749 13.3095 15.4159 13.3753 15.25 13.3753C15.0841 13.3753 14.9251 13.3095 14.8078 13.1922C14.6905 13.0749 14.6247 12.9159 14.6247 12.75C14.6247 12.5841 14.6905 12.4251 14.8078 12.3078L18.7414 8.375H16.5C16.3342 8.375 16.1753 8.30915 16.0581 8.19194C15.9408 8.07473 15.875 7.91576 15.875 7.75C15.875 7.58424 15.9408 7.42527 16.0581 7.30806C16.1753 7.19085 16.3342 7.125 16.5 7.125H20.25C20.4158 7.125 20.5747 7.19085 20.6919 7.30806C20.8092 7.42527 20.875 7.58424 20.875 7.75ZM12.3078 14.8078L8.375 18.7414V16.5C8.375 16.3342 8.30915 16.1753 8.19194 16.0581C8.07473 15.9408 7.91576 15.875 7.75 15.875C7.58424 15.875 7.42527 15.9408 7.30806 16.0581C7.19085 16.1753 7.125 16.3342 7.125 16.5V20.25C7.125 20.4158 7.19085 20.5747 7.30806 20.6919C7.42527 20.8092 7.58424 20.875 7.75 20.875H11.5C11.6658 20.875 11.8247 20.8092 11.9419 20.6919C12.0592 20.5747 12.125 20.4158 12.125 20.25C12.125 20.0842 12.0592 19.9253 11.9419 19.8081C11.8247 19.6908 11.6658 19.625 11.5 19.625H9.25859L13.1922 15.6922C13.3095 15.5749 13.3753 15.4159 13.3753 15.25C13.3753 15.0841 13.3095 14.9251 13.1922 14.8078C13.0749 14.6905 12.9159 14.6247 12.75 14.6247C12.5841 14.6247 12.4251 14.6905 12.3078 14.8078Z" fill="white"/>
</svg>
