<svg width="14" height="18" viewBox="0 0 14 18" fill="none" xmlns="http://www.w3.org/2000/svg">
<path d="M10.125 10.875C10.125 11.0408 10.0592 11.1997 9.94194 11.317C9.82473 11.4342 9.66576 11.5 9.5 11.5H4.5C4.33424 11.5 4.17527 11.4342 4.05806 11.317C3.94085 11.1997 3.875 11.0408 3.875 10.875C3.875 10.7092 3.94085 10.5503 4.05806 10.4331C4.17527 10.3159 4.33424 10.25 4.5 10.25H9.5C9.66576 10.25 9.82473 10.3159 9.94194 10.4331C10.0592 10.5503 10.125 10.7092 10.125 10.875ZM9.5 7.75001H4.5C4.33424 7.75001 4.17527 7.81586 4.05806 7.93307C3.94085 8.05028 3.875 8.20925 3.875 8.37501C3.875 8.54077 3.94085 8.69974 4.05806 8.81695C4.17527 8.93416 4.33424 9.00001 4.5 9.00001H9.5C9.66576 9.00001 9.82473 8.93416 9.94194 8.81695C10.0592 8.69974 10.125 8.54077 10.125 8.37501C10.125 8.20925 10.0592 8.05028 9.94194 7.93307C9.82473 7.81586 9.66576 7.75001 9.5 7.75001ZM13.875 2.75001V15.875C13.875 16.2065 13.7433 16.5245 13.5089 16.7589C13.2745 16.9933 12.9565 17.125 12.625 17.125H1.375C1.04348 17.125 0.725537 16.9933 0.491116 16.7589C0.256696 16.5245 0.125 16.2065 0.125 15.875V2.75001C0.125 2.41849 0.256696 2.10055 0.491116 1.86613C0.725537 1.6317 1.04348 1.50001 1.375 1.50001H4.20781C4.55899 1.10682 4.98924 0.792241 5.47041 0.576851C5.95158 0.361461 6.47282 0.250122 7 0.250122C7.52718 0.250122 8.04841 0.361461 8.52959 0.576851C9.01076 0.792241 9.44101 1.10682 9.79219 1.50001H12.625C12.9565 1.50001 13.2745 1.6317 13.5089 1.86613C13.7433 2.10055 13.875 2.41849 13.875 2.75001ZM4.5 4.00001H9.5C9.5 3.33697 9.23661 2.70108 8.76777 2.23224C8.29893 1.7634 7.66304 1.50001 7 1.50001C6.33696 1.50001 5.70107 1.7634 5.23223 2.23224C4.76339 2.70108 4.5 3.33697 4.5 4.00001ZM12.625 2.75001H10.5352C10.6773 3.15143 10.75 3.57416 10.75 4.00001V4.62501C10.75 4.79077 10.6842 4.94974 10.5669 5.06695C10.4497 5.18416 10.2908 5.25001 10.125 5.25001H3.875C3.70924 5.25001 3.55027 5.18416 3.43306 5.06695C3.31585 4.94974 3.25 4.79077 3.25 4.62501V4.00001C3.25001 3.57416 3.32267 3.15143 3.46484 2.75001H1.375V15.875H12.625V2.75001Z" fill="white"/>
</svg>
